HIERARCHY
ROOT Hips
{
	OFFSET -3.958830 18.904000 13.208200
	CHANNELS 6 Xposition Yposition Zposition Zrotation Yrotation Xrotation 
	JOINT LHipJoint
	{
		OFFSET 0.000000 0.000000 0.000000
		CHANNELS 3 Zrotation Yrotation Xrotation
		JOINT LeftUpLeg
		{
			OFFSET 1.800000 -1.400000 0.085000
			CHANNELS 3 Zrotation Yrotation Xrotation
			JOINT LeftLeg
			{
				OFFSET 2.215000 -6.000000 0.000000
				CHANNELS 3 Zrotation Yrotation Xrotation
				JOINT LeftFoot
				{
					OFFSET 2.500000 -6.900000 0.000000
					CHANNELS 3 Zrotation Yrotation Xrotation
					JOINT LeftToeBase
					{
						OFFSET 0.200000 -0.500000 1.950000
						CHANNELS 3 Zrotation Yrotation Xrotation
						End Site
						{
							OFFSET 0.000000 0.000000 0.000000
						}
					}
				}
			}
		}
	}
	JOINT RHipJoint
	{
		OFFSET 0.000000 0.000000 0.000000
		CHANNELS 3 Zrotation Yrotation Xrotation
		JOINT RightUpLeg
		{
			OFFSET -1.800000 -1.400000 0.085000
			CHANNELS 3 Zrotation Yrotation Xrotation
			JOINT RightLeg
			{
				OFFSET -2.215000 -6.000000 0.000000
				CHANNELS 3 Zrotation Yrotation Xrotation
				JOINT RightFoot
				{
					OFFSET -2.500000 -6.900000 0.000000
					CHANNELS 3 Zrotation Yrotation Xrotation
					JOINT RightToeBase
					{
						OFFSET -0.200000 -0.500000 1.950000
						CHANNELS 3 Zrotation Yrotation Xrotation
						End Site
						{
							OFFSET 0.000000 0.000000 0.000000
						}
					}
				}
			}
		}
	}
	JOINT LowerBack
	{
		OFFSET 0.000000 0.000000 0.000000
		CHANNELS 3 Zrotation Yrotation Xrotation
		JOINT Spine
		{
			OFFSET -0.087000 1.940000 -0.288900
			CHANNELS 3 Zrotation Yrotation Xrotation
			JOINT Spine1
			{
				OFFSET 0.000000 1.950000 0.060000
				CHANNELS 3 Zrotation Yrotation Xrotation
				JOINT Neck
				{
					OFFSET 0.000000 0.000000 0.000000
					CHANNELS 3 Zrotation Yrotation Xrotation
					JOINT Neck1
					{
						OFFSET 0.000000 1.600000 0.340000
						CHANNELS 3 Zrotation Yrotation Xrotation
						JOINT Head
						{
							OFFSET 0.000000 1.667000 -0.240000
							CHANNELS 3 Zrotation Yrotation Xrotation
							End Site
							{
								OFFSET 0.000000 0.000000 0.000000
							}
						}
					}
				}
				JOINT LeftShoulder
				{
					OFFSET 0.000000 0.000000 0.000000
					CHANNELS 3 Zrotation Yrotation Xrotation
					JOINT LeftArm
					{
						OFFSET 2.700000 1.550000 -0.730000
						CHANNELS 3 Zrotation Yrotation Xrotation
						JOINT LeftForeArm
						{
							OFFSET 5.450000 0.000000 0.000000
							CHANNELS 3 Zrotation Yrotation Xrotation
							JOINT LeftHand
							{
								OFFSET 3.450000 0.000000 0.000000
								CHANNELS 3 Zrotation Yrotation Xrotation
								JOINT LeftHandIndex1
								{
									OFFSET 0.750000 0.000000 0.000000
									CHANNELS 3 Zrotation Yrotation Xrotation
									End Site
									{
										OFFSET 0.000000 0.000000 0.000000
									}
								}
							}
						}
					}
				}
				JOINT RightShoulder
				{
					OFFSET 0.000000 0.000000 0.000000
					CHANNELS 3 Zrotation Yrotation Xrotation
					JOINT RightArm
					{
						OFFSET -2.700000 1.550000 -0.730000
						CHANNELS 3 Zrotation Yrotation Xrotation
						JOINT RightForeArm
						{
							OFFSET -5.450000 0.000000 0.000000
							CHANNELS 3 Zrotation Yrotation Xrotation
							JOINT RightHand
							{
								OFFSET -3.450000 0.000000 0.000000
								CHANNELS 3 Zrotation Yrotation Xrotation
								JOINT RightHandIndex1
								{
									OFFSET -0.750000 0.000000 0.000000
									CHANNELS 3 Zrotation Yrotation Xrotation
									End Site
									{
										OFFSET 0.000000 0.000000 0.000000
									}
								}
							}
						}
					}
				}
			}
		}
	}
}
MOTION
Frames: 14
Frame Time: 0.016667
0.267110 16.851890 -1.031670 2.682075 35.369162 -3.665683 -15.548971 11.583241 6.216079 21.928503 -7.838816 -31.020730 -36.546185 29.854822 45.413179 1.521880 13.630881 0.150018 0.393620 -0.154010 0.259750 18.077491 -10.393302 1.121993 -17.586503 -0.214868 -22.181900 -4.512389 -5.297976 31.426316 -0.206658 -4.184130 3.054535 -0.000300 0.206570 -0.058440 -3.351316 -1.736096 -8.912899 6.674566 -1.718442 26.458498 -4.352021 1.827054 4.045287 1.717735 -7.415778 -10.585271 -17.655735 -6.491830 36.661331 9.053460 -15.778090 -15.124870 -13.575073 -1.473712 1.683778 -41.221671 1.993094 -11.504380 -29.286306 -65.868710 12.747417 -3.275604 3.149650 0.788540 -0.134110 -0.161020 0.198030 10.093025 9.398997 8.918209 23.038257 -12.713518 -8.981104 59.061821 34.250467 12.100041 1.953598 -1.598529 -0.379850 0.425250 0.037040 -0.305130 
0.265430 16.752680 -1.015350 2.896300 33.867008 -3.722840 -15.522825 11.489886 6.225926 22.892874 -7.325181 -31.086605 -34.340901 31.613959 49.509340 1.633210 14.251768 -0.029972 0.397270 -0.153240 0.273590 18.130961 -10.401321 1.133517 -17.157983 0.029010 -23.248515 -6.038836 -4.933446 33.021477 -0.235788 -4.340159 2.990779 0.007340 0.208750 -0.041040 -3.447304 -1.483358 -8.937122 7.461391 -1.923641 26.409693 -5.423541 1.845770 3.436537 2.076140 -7.032957 -10.020570 -16.452702 -6.078423 36.328612 7.893950 -14.634630 -14.646920 -15.191337 0.122482 1.532105 -42.261722 5.586200 -12.312834 -40.377528 -66.576115 19.623432 -3.315132 3.219634 0.790250 -0.115670 -0.160600 0.189640 10.777271 7.484022 8.077479 22.611698 -12.850944 -8.701861 66.790253 32.718719 13.304001 1.945695 -1.669100 -0.383400 0.417850 0.044380 -0.318290 
0.262690 16.661500 -1.003930 2.790893 32.557136 -3.984465 -15.483464 11.441259 6.142101 23.631379 -6.828359 -30.677685 -30.570420 32.495081 54.139663 1.698076 14.770780 -0.189364 0.436780 -0.111620 0.326360 18.188936 -10.434174 1.191177 -16.225308 0.336096 -24.488945 -7.780168 -4.434363 34.793695 -0.289491 -4.516174 2.922648 0.037370 0.185550 -0.029470 -3.580636 -1.202611 -8.934727 8.534565 -2.351443 26.234428 -6.654745 1.630542 2.894144 2.529105 -6.321197 -9.274837 -14.604738 -5.727192 36.101413 6.382280 -13.082680 -14.751600 -16.311492 1.978967 1.156944 -43.167050 8.362203 -12.798995 -48.638449 -64.822641 23.982563 -3.330338 3.252257 0.800940 -0.107870 -0.142980 0.185740 10.752880 4.951592 7.073114 23.446285 -12.355486 -8.518200 73.100043 32.031886 14.745262 1.923134 -1.738507 -0.382150 0.412350 0.023910 -0.342170 
0.267480 16.588500 -1.002570 2.310134 31.435877 -4.756972 -15.439825 11.531784 5.954893 23.983823 -6.481024 -29.547754 -25.390470 32.190530 59.208454 1.727304 15.166546 -0.310752 0.468990 -0.080740 0.389020 18.221501 -10.523433 1.262430 -14.917890 0.567972 -25.118808 -9.615406 -3.779650 35.908744 -0.345759 -4.615146 2.890128 0.058000 0.156140 -0.022670 -3.702972 -1.014706 -8.898354 9.845018 -2.889158 26.367995 -7.628199 1.358469 2.249242 3.063387 -5.464165 -8.666511 -12.740295 -5.556916 36.469512 4.680090 -11.648700 -15.031340 -17.818879 3.147799 0.772155 -43.735205 10.501424 -13.323652 -52.116239 -61.610800 24.447155 -3.331320 3.220403 0.825460 -0.106870 -0.112640 0.181600 11.015652 2.950721 6.395495 24.634756 -12.369915 -8.628654 77.353850 31.893816 15.948332 1.905831 -1.774207 -0.388050 0.416160 -0.002380 -0.370410 
0.268950 16.537270 -1.011680 2.043808 30.095778 -5.493093 -15.398594 11.808292 5.614634 23.537092 -6.139004 -27.680147 -19.569290 30.377768 63.421884 1.720631 15.213412 -0.341682 0.477790 -0.068280 0.415900 18.216911 -10.647757 1.386681 -13.565717 0.803361 -25.612359 -11.407318 -3.020576 36.385986 -0.386818 -4.637630 2.888179 0.045940 0.122330 -0.006730 -3.776179 -0.997827 -8.819735 10.732175 -3.240152 26.864705 -8.106108 1.173291 1.223989 3.437746 -5.137291 -8.402428 -12.052251 -4.934879 37.209008 3.764900 -10.532310 -15.086700 -18.531000 4.432337 0.427673 -45.295129 11.876720 -13.980417 -52.239496 -58.638613 22.936785 -3.318974 3.198901 0.835060 -0.114420 -0.080860 0.173820 10.890054 1.388293 6.116721 26.656519 -12.922340 -9.049276 80.212696 31.860767 16.787901 1.907666 -1.796984 -0.365760 0.389650 -0.018800 -0.379290 
0.267240 16.510440 -1.029960 1.360016 28.852174 -6.606690 -15.352852 12.238476 5.160816 22.977302 -5.714019 -25.226837 -13.449970 27.274128 66.535431 1.629881 14.903917 -0.283399 0.465310 -0.090450 0.437220 18.188798 -10.830521 1.530060 -11.583177 0.996723 -25.296375 -13.297508 -2.105131 35.716113 -0.407494 -4.510717 2.942074 0.010840 0.084790 0.005150 -3.843266 -1.075154 -8.701505 11.795625 -3.623279 27.238821 -8.424303 1.026480 0.508000 3.867264 -4.624968 -8.627382 -11.342980 -4.006466 39.249491 3.362350 -9.425370 -14.791040 -18.909100 4.595442 0.393640 -47.206232 12.312127 -14.746526 -49.327880 -54.961037 19.380830 -3.306283 3.139276 0.860280 -0.132160 -0.048670 0.154500 10.404587 0.820798 6.337996 28.984543 -13.638365 -9.750327 81.952857 32.091053 17.368931 1.923925 -1.787731 -0.351250 0.358840 -0.022400 -0.395080 
0.267700 16.507240 -1.064650 0.624294 27.842178 -8.222191 -15.308325 12.854597 4.567552 21.908681 -5.280259 -21.874090 -7.157431 22.847429 68.059433 1.441011 14.139556 -0.115825 0.487970 -0.076650 0.487840 18.119662 -11.091626 1.680424 -10.223520 0.944458 -24.248708 -14.061664 -1.679838 34.530625 -0.436836 -4.319449 3.000994 -0.015570 0.005950 0.031450 -3.872100 -1.269634 -8.524463 12.606921 -4.052365 28.014604 -8.496417 0.794197 0.039239 4.424027 -4.041037 -9.001227 -10.683107 -3.316346 42.421909 2.982660 -8.530360 -15.658870 -19.053141 4.575272 0.393977 -49.449209 12.264745 -15.496462 -46.104021 -51.603622 16.065828 -3.268604 3.087014 0.910950 -0.178660 0.019110 0.131830 9.506902 0.455657 6.681199 31.275802 -14.115434 -10.517384 83.413746 32.735023 18.215386 1.941803 -1.775332 -0.312970 0.311360 -0.040420 -0.417150 
0.284660 16.500830 -1.098590 -0.152018 27.333140 -8.957964 -15.274272 13.375847 4.005038 20.804596 -4.971146 -19.209363 -1.612283 18.291901 68.056688 1.233808 13.244014 0.127653 0.493240 -0.069760 0.514750 18.065543 -11.291608 1.837713 -9.738511 0.829424 -24.182058 -13.243487 -1.948383 33.761902 -0.421698 -4.166439 3.053194 -0.027980 -0.021280 0.045290 -3.901317 -1.444730 -8.339753 13.240853 -4.327594 27.043444 -8.028864 0.369776 0.389707 4.745986 -3.154847 -9.116064 -9.128578 -3.208474 44.122404 2.286430 -7.773520 -15.267010 -19.011844 4.404739 0.456921 -51.438712 11.665482 -15.727308 -43.750117 -48.145829 13.454268 -3.283388 3.029156 0.914430 -0.181950 0.046430 0.122590 8.936566 -0.222944 6.728285 33.091241 -14.330682 -10.968367 84.277195 33.375805 18.953973 1.946305 -1.776548 -0.292300 0.291180 -0.053590 -0.423890 
0.295880 16.502700 -1.139550 -0.602152 26.710378 -9.485950 -15.263821 13.889290 3.462923 19.365448 -4.616138 -16.081251 3.127817 13.868181 66.160824 0.967575 12.226923 0.412680 0.508030 -0.060330 0.571190 17.985076 -11.474464 1.999885 -9.949371 0.710592 -24.356842 -11.363481 -2.579131 32.993873 -0.395142 -3.998898 3.093962 -0.022030 -0.064100 0.048720 -3.841060 -1.646880 -8.147857 12.853556 -4.152160 25.897981 -7.021892 0.098020 1.169801 5.112059 -1.534625 -9.198965 -6.119542 -3.781213 45.559555 0.777880 -6.517920 -15.260120 -19.131255 3.634786 0.642743 -52.288821 10.943588 -15.557434 -43.394298 -45.025636 11.955560 -3.302676 2.975818 0.939640 -0.186570 0.073180 0.099630 8.553609 -0.859647 6.702114 35.320892 -14.369285 -11.613989 83.836467 34.231911 19.318668 1.937130 -1.762856 -0.296530 0.279390 -0.065170 -0.459470 
0.301880 16.509100 -1.192840 -0.925203 25.520410 -9.746646 -15.278456 14.319506 3.009094 18.077941 -4.026362 -12.745637 6.734116 10.409245 63.009762 0.801021 11.228578 0.712105 0.565930 0.019100 0.638770 17.898959 -11.565110 2.184240 -10.392261 0.786554 -24.933826 -8.720129 -3.362282 32.225117 -0.386156 -3.829671 3.128635 -0.006010 -0.139180 0.073410 -3.690174 -1.883890 -7.985001 11.716703 -3.527362 24.566458 -5.257047 0.088882 2.290639 5.272132 0.069401 -9.537241 -3.197535 -4.508068 46.948137 -0.599230 -5.294380 -15.275290 -18.856615 2.457315 1.135807 -53.250512 9.961280 -15.300807 -44.291634 -42.350209 11.144598 -3.289275 2.996002 0.929630 -0.203340 0.130570 0.097610 8.278358 -0.899905 6.793088 37.778879 -14.319424 -12.469364 82.856520 35.684276 19.774249 1.955737 -1.785368 -0.237250 0.225260 -0.120620 -0.466050 
0.311280 16.523540 -1.258400 -1.007796 24.536808 -10.355316 -15.334762 14.753145 2.689404 16.992962 -3.511502 -9.024209 9.373067 7.766513 59.070881 0.650322 10.294514 1.003566 0.641040 0.107300 0.721710 17.772987 -11.579058 2.322784 -11.203151 0.740446 -25.075558 -5.860851 -4.246699 31.723865 -0.409402 -3.733936 3.139012 0.014940 -0.238750 0.080230 -3.409301 -2.345400 -7.866124 9.800030 -3.141298 24.021392 -3.085454 -0.166900 2.983268 5.395256 1.121114 -10.237030 -1.431353 -4.640384 49.760601 -1.517590 -4.107650 -16.084160 -18.080671 1.199772 1.713380 -54.317976 8.774127 -14.874402 -44.906814 -39.582915 10.193538 -3.232397 3.000646 0.961720 -0.255140 0.208520 0.102470 7.648603 -0.278528 7.189492 40.110958 -14.106267 -13.347022 81.715822 37.408818 20.362461 1.979793 -1.786493 -0.190850 0.184120 -0.189300 -0.483610 
0.321480 16.540930 -1.329730 -1.187111 23.508678 -11.042692 -15.393145 15.051173 2.448838 16.497228 -2.886694 -5.105415 10.780607 6.197766 54.234597 0.516581 9.368977 1.282189 0.744940 0.236900 0.821750 17.669643 -11.525386 2.483589 -12.019495 0.844619 -25.387017 -2.499831 -5.304028 31.518962 -0.461929 -3.749435 3.099247 0.050780 -0.374130 0.088470 -3.139387 -2.710041 -7.784332 7.887700 -2.881047 23.321780 -1.251248 -0.551989 3.615134 5.566367 2.376936 -11.013023 1.021774 -4.987259 53.411166 -2.392680 -2.696780 -17.135070 -17.490238 -0.315704 2.438406 -54.725411 7.734033 -14.350968 -45.462642 -37.463468 9.525680 -3.145200 3.041758 0.991370 -0.322730 0.302600 0.102350 7.107171 0.417601 7.555236 42.997666 -13.392372 -14.232451 78.777983 39.291361 20.378058 2.013813 -1.793814 -0.120210 0.116200 -0.275740 -0.502500 
0.326020 16.548470 -1.403290 -1.161022 22.278214 -11.375184 -15.475989 15.231391 2.290480 16.321982 -2.260321 -1.577028 11.192784 5.488715 49.198931 0.392812 8.592644 1.531486 0.807430 0.310990 0.883910 17.578272 -11.359017 2.667421 -12.646471 1.185074 -26.251845 0.613097 -6.299852 31.710795 -0.519607 -3.871006 3.018890 0.067530 -0.452690 0.112560 -2.815910 -3.100203 -7.734739 5.317649 -2.587571 22.294655 0.774739 -0.978640 4.146958 5.497187 3.186576 -11.711973 2.728747 -5.004950 56.934118 -2.715070 -1.510640 -17.586920 -16.870776 -1.739141 3.158580 -54.843929 6.704709 -13.558322 -46.046673 -35.611458 9.001869 -3.103918 3.069741 1.018490 -0.362180 0.371920 0.099260 7.038476 1.328685 7.804083 45.277810 -12.422380 -14.870577 74.308938 41.078787 19.786194 2.038937 -1.768297 -0.071300 0.072280 -0.318160 -0.513050 
0.334270 16.550640 -1.487140 -1.310104 20.253383 -11.874301 -15.536890 15.309214 2.216166 16.428312 -1.697827 2.016107 10.881192 5.486103 45.131263 0.301968 8.130771 1.707341 0.827320 0.326750 0.930830 17.528953 -11.115850 2.882955 -12.939892 1.765234 -27.218758 3.975418 -7.293349 31.628544 -0.565630 -3.996304 2.968474 0.072550 -0.488020 0.099250 -2.560730 -3.448878 -7.756112 3.532836 -2.493671 21.776429 2.010878 -1.337457 4.464863 5.421587 3.515668 -12.594076 3.487827 -4.704982 60.803746 -2.987800 -0.519260 -17.963390 -17.046700 -3.713672 4.035350 -53.823973 6.447443 -13.025158 -47.214134 -35.143027 9.072000 -3.081053 3.023598 1.067160 -0.389070 0.411530 0.088480 7.622219 3.100699 8.313110 46.740638 -11.828249 -15.558487 70.798406 43.212567 19.590362 2.053142 -1.688957 -0.080770 0.095550 -0.329250 -0.538680 
